<?xml version="1.0" encoding="UTF-8" standalone="no"?>
<!-- Created with Inkscape (http://www.inkscape.org/) -->

<svg
   xmlns:dc="http://purl.org/dc/elements/1.1/"
   xmlns:cc="http://creativecommons.org/ns#"
   xmlns:rdf="http://www.w3.org/1999/02/22-rdf-syntax-ns#"
   xmlns:svg="http://www.w3.org/2000/svg"
   xmlns="http://www.w3.org/2000/svg"
   xmlns:sodipodi="http://sodipodi.sourceforge.net/DTD/sodipodi-0.dtd"
   xmlns:inkscape="http://www.inkscape.org/namespaces/inkscape"
   width="744.09448"
   height="744.09448"
   id="svg2"
   version="1.1"
   inkscape:version="0.48.5 r10040"
   sodipodi:docname="devil_girl.svg">
  <defs
     id="defs4" />
  <sodipodi:namedview
     id="base"
     pagecolor="#ffffff"
     bordercolor="#666666"
     borderopacity="1.0"
     inkscape:pageopacity="0.0"
     inkscape:pageshadow="2"
     inkscape:zoom="0.55544788"
     inkscape:cx="437.80212"
     inkscape:cy="628.90462"
     inkscape:document-units="px"
     inkscape:current-layer="layer1"
     showgrid="false"
     inkscape:window-width="1366"
     inkscape:window-height="705"
     inkscape:window-x="0"
     inkscape:window-y="0"
     inkscape:window-maximized="0"
     showguides="true"
     inkscape:guide-bbox="true"
     units="mm" />
  <metadata
     id="metadata7">
    <rdf:RDF>
      <cc:Work
         rdf:about="">
        <dc:format>image/svg+xml</dc:format>
        <dc:type
           rdf:resource="http://purl.org/dc/dcmitype/StillImage" />
        <dc:title></dc:title>
      </cc:Work>
    </rdf:RDF>
  </metadata>
  <g
     inkscape:label="Vrstva 1"
     inkscape:groupmode="layer"
     id="layer1"
     transform="translate(0,-308.26772)">
    <path
       id="path3869"
       style="font-size:medium;font-style:normal;font-variant:normal;font-weight:normal;font-stretch:normal;text-indent:0;text-align:start;text-decoration:none;line-height:normal;letter-spacing:normal;word-spacing:normal;text-transform:none;direction:ltr;block-progression:tb;writing-mode:lr-tb;text-anchor:start;baseline-shift:baseline;color:#000000;fill:#000000;fill-opacity:1;fill-rule:evenodd;stroke:none;stroke-width:8.30000019;marker:none;visibility:visible;display:inline;overflow:visible;enable-background:accumulate;font-family:Sans;-inkscape-font-specification:Sans"
       d="m 55.689008,556.07566 c 12.440765,14.08132 25.278165,25.87121 41.871715,33.72501 8.380957,3.96676 12.855657,-8.5218 5.936037,-11.88529 -15.069627,-7.32506 -28.754267,-14.83762 -40.578607,-28.22123 -4.439404,-4.62543 -10.981305,1.99539 -7.229145,6.38151 z M 464.20218,845.36161 c -36.98992,42.21119 -106.26473,30.25067 -187.14991,-1.19126 -28.94107,-12.98311 -51.87568,-18.5511 -72.22413,16.99699 -13.00133,22.71289 -25.88002,52.52004 -35.36217,78.642 -4.63386,12.7656 -8.12115,27.61248 12.44343,35.60871 99.11413,38.53905 201.02591,20.97603 249.49158,-8.88338 -75.15749,-12.26361 -136.70118,-36.17208 -218.22329,-21.34826 6.43774,-26.62184 53.68749,0.12436 58.69928,-65.76351 23.93208,60.23269 86.74766,58.05088 147.19987,41.74763 60.4522,-16.30324 101.06808,-19.37802 148.19238,-17.13529 4.49405,-7.77754 10.71805,-14.65332 18.67203,-20.62736 5.524,18.52701 17.66927,30.73445 30.75358,39.13038 -75.60285,-9.02832 -141.59323,-6.82152 -188.03576,12.53704 51.3528,5.43597 98.6874,26.20581 148.55459,33.36368 92.85485,13.32826 156.55092,-3.76611 91.36218,-95.41814 -35.43596,-49.82114 -74.38959,-62.82958 -107.29314,-46.62225 -15.45505,7.61273 -40.39943,19.93427 -67.17228,30.59264 -12.67904,5.04757 -23.57731,3.16237 -29.90824,-11.62962 z M 48.604132,538.95405 c -4.761734,0.43398 -8.266412,5.83135 -4.791893,11.01759 13.982171,20.87042 23.964234,39.54224 31.662224,62.44517 2.32819,7.12189 6.28392,7.69541 10.36921,4.52708 6.30595,-4.89056 13.33901,-11.42687 20.157527,-18.88288 46.52232,36.54835 78.96983,90.26471 33.41694,143.39126 -60.312897,70.34058 -7.77481,128.02705 39.33283,145.30445 l 11.03457,-24.18688 c -64.10505,-21.12024 -72.73205,-65.23653 -41.98471,-106.32352 44.08318,-58.90741 44.00274,-107.06561 -33.03026,-168.48301 4.78528,-6.08189 9.18559,-12.53263 12.79759,-19.04322 1.55308,-4.68237 -1.07749,-7.16182 -6.14017,-7.97391 -25.478217,-4.08693 -46.704327,-11.63056 -69.387816,-21.22645 -1.160657,-0.49099 -2.337178,-0.66584 -3.436042,-0.56568 z M 431.22424,333.55526 c -67.78447,-1.24684 -140.50592,25.32467 -198.5666,94.2533 -38.04279,2.27187 -60.00324,-21.09802 -79.95663,-44.03655 -18.45939,44.90703 -24.29978,134.75179 41.90512,175.59628 -11.51932,46.69051 -1.64623,96.22563 39.03889,149.83313 26.44167,51.15536 76.90865,87.71801 131.75735,121.00244 12.68451,7.69747 9.81457,26.05243 -10.79091,20.49152 C 318.64007,840.98762 242.96799,768.059 202.83029,838.20527 l -9.66832,16.89674 c -58.33361,-23.24677 -67.91913,-59.06168 -33.14108,-103.00202 41.41904,-52.33087 39.34408,-108.18863 -33.94245,-163.85593 5.46453,-7.32156 10.51825,-14.91643 14.77981,-22.60045 2.24575,-6.77285 -1.58805,-10.40033 -8.90845,-11.57495 -36.840387,-5.91135 -67.512057,-16.79005 -100.31132,-30.66991 -8.950701,-3.78771 -18.080352,5.87229 -11.897015,15.10506 20.217436,30.18805 34.642421,57.15584 45.773178,90.28386 3.3664,10.30147 9.07018,11.14617 14.97734,6.56329 7.03926,-5.46116 14.71422,-12.34368 22.391317,-20.15092 57.2745,43.45059 52.87886,87.39368 14.63344,134.5514 -47.814327,58.95644 -13.53872,127.01127 53.64774,152.43688 -5.72687,12.94325 -10.87705,26.32793 -15.83135,41.95046 -11.37321,35.86329 6.5199,48.78869 23.44328,57.30152 98.48302,49.5389 220.36487,19.4064 300.16444,-23.10834 102.73244,31.19094 203.54894,36.60234 232.64074,0.93403 20.56647,-25.21576 18.25146,-44.58226 1.91381,-69.53086 -21.01914,-32.09752 -35.20984,-52.03077 -63.82218,-78.14778 -24.20629,-22.09519 -55.00156,-38.56548 -100.73474,-12.97884 -11.05158,6.18311 -32.12691,16.63663 -58.81663,27.26228 -12.38965,4.93255 -18.13512,-9.1217 -9.39672,-14.88368 73.8221,-48.67718 111.30147,-89.87322 137.09791,-129.12855 33.97547,-37.43742 49.82748,-91.73262 41.47047,-155.80245 55.51123,-33.27413 57.67147,-106.50054 35.53486,-171.60703 -19.70058,28.91824 -38.38494,54.50665 -74.33916,59.4978 C 587.64137,377.07596 513.03308,335.06006 431.22424,333.55526 z M 261.86,561.40831 c 72.31528,-12.52477 118.19839,0.94295 155.26787,30.09783 118.76146,-75.32834 221.95079,-24.943 198.35336,91.91821 31.27735,-38.68513 34.81389,-84.02741 27.41587,-131.99375 l -20.55603,14.28054 C 586.74449,525.94343 575.1933,472.29333 590.50784,429.46825 l 16.99156,4.34946 C 548.89492,338.2959 363.58908,294.65363 241.85908,431.71755 c 3.63219,4.45343 14.46251,4.98537 24.26209,2.88079 14.04035,-3.01532 28.30318,68.71714 -3.1974,105.78285 -2.90358,7.60083 -3.17062,14.58955 -1.06377,21.02712 z M 471.28989,355.66159 c -153.16184,-15.66455 -205.31283,66.77847 -178.41929,77.51618 23.14369,9.24051 32.11637,-71.71746 178.41929,-77.51618 z m -51.26381,251.9861 c -142.33622,-114.40126 -315.08707,67.22548 -43.45095,220.13253 26.37189,14.84504 56.75855,18.10817 84.79351,2.19354 C 712.0501,687.66917 603.48546,482.02419 420.02608,607.64769 z M 265.22256,445.85662 c -47.30812,2.96657 -79.48076,-10.92508 -110.77085,-43.07252 -1.29412,73.84874 46.45556,104.00936 115.10519,102.2874 2.62709,-23.67517 1.83466,-44.04417 -4.33434,-59.21488 z m 332.98822,-3.97086 c -4.73908,12.88221 -8.34592,28.99002 2.25987,61.28567 61.2467,2.21417 88.95734,-52.29745 86.02725,-102.60493 -24.29862,34.83288 -53.83399,48.51496 -88.28712,41.31926 z M 397.73747,792.03898 c 1.93056,21.36524 28.78741,25.07487 31.34516,0.99527 -12.49818,-6.17147 -21.4521,-2.84064 -31.34516,-0.99527 z m 84.97634,-27.39093 c -9.82904,2.60002 -14.47725,4.04059 -24.21217,5.89269 -13.23815,-8.79264 -21.46812,-9.22179 -34.43898,-4.1846 -11.96192,-4.65556 -27.87087,0.61577 -34.1692,6.84006 -5.64609,-1.01642 -11.32255,-2.40962 -17.03915,-4.23417 -9.71327,-1.99466 -11.25707,10.89508 -4.25149,13.3842 5.56143,1.77502 8.9931,6.20233 14.47219,7.27522 13.22431,46.17694 72.42737,40.85386 84.33299,-2.39545 6.04671,-1.37729 12.92203,-7.41186 18.88501,-8.98921 9.24942,-3.59719 4.23685,-14.99966 -3.5792,-13.58874 z m -76.68258,-32.67838 c -4.80801,7.33079 1.42193,12.32471 6.51519,8.21084 9.43459,-7.6204 20.80627,-5.52676 27.70545,0.24938 5.73905,4.80488 11.02376,-2.31292 6.85639,-8.31187 -9.50171,-13.67781 -31.52652,-14.71001 -41.07703,-0.14835 z m -125.09279,-4.79256 c 13.5982,5.29359 29.25851,5.07137 44.20288,2.78441 5.90993,-0.90441 3.57215,-8.46435 -0.81226,-7.694 -14.72306,2.58687 -25.7629,3.92346 -41.49877,-0.91513 -5.52254,-1.69812 -6.49731,5.06201 -1.89191,5.82472 z m 46.89377,-67.23745 c 23.2388,5.36966 34.66762,12.49926 41.37378,19.92006 4.31448,4.77423 11.44231,-1.78795 7.29126,-6.35373 -8.27821,-9.10529 -22.55033,-15.4694 -46.8955,-20.65968 -5.58168,-1.18999 -6.52757,5.99394 -1.76954,7.09335 z m -69.53965,-5.30684 c 6.90006,10.0164 14.55479,18.52469 22.74281,25.69923 -0.4176,4.45316 -1.4168,7.69831 -6.47263,11.75092 7.86518,2.42602 14.46918,1.25601 20.76085,-0.8832 3.17557,2.08858 6.42596,4.01696 9.69515,5.78513 0.1849,4.91715 -0.0562,9.287 -4.7314,13.88388 11.30166,1.63283 17.21789,-0.70536 25.68616,-4.75353 4.0953,1.39085 8.21737,2.61512 12.34309,3.61737 -4.45892,5.09445 -7.79005,7.03975 -11.59818,10.28628 10.12491,-0.31881 18.89613,-2.77162 28.88225,-7.16595 10.45535,1.29633 20.76884,1.53191 30.59576,0.91467 -2.24253,-7.10156 -8.55137,-16.11288 -18.41987,-23.95798 -41.43705,-4.25057 -74.08244,-11.9982 -109.48399,-35.17682 z m 263.26266,22.80813 c -0.0986,5.85186 -5.00478,10.51435 -10.95816,10.414 -5.95338,-0.10038 -10.69959,-4.92554 -10.60095,-10.7774 0.0986,-5.85186 5.00477,-10.51439 10.95816,-10.41403 5.95338,0.10038 10.69958,4.92557 10.60095,10.77743 z m 59.28817,-41.01872 c -7.95687,12.55413 -18.69695,22.47206 -36.75267,15.77416 -39.67581,-14.71804 -59.7247,22.33552 -74.73328,44.1493 -5.58935,2.83675 -7.66928,6.71546 -8.85411,11.02165 5.40544,1.68752 9.28062,2.80741 15.34931,1.70951 17.13365,12.98378 45.54858,15.15322 67.54497,3.60483 5.0794,0.69982 10.54128,0.91228 13.08068,5.04429 3.20469,-5.12734 1.44791,-9.803 0.13575,-14.50538 1.25766,-1.20722 2.46273,-2.47695 3.61876,-3.81981 6.228,2.2448 11.63426,5.90785 16.50918,10.36111 -1.77313,-6.53405 -4.04446,-14.57497 -9.63015,-20.40052 0.85658,-1.59389 1.64047,-3.23948 2.36865,-4.96522 11.87342,1.33774 17.84782,-5.61649 22.90198,-13.86775 -6.50483,2.09337 -13.03954,6.2345 -19.45655,3.11762 0.67678,-2.97876 1.18559,-6.11699 1.50048,-9.40469 12.85316,-11.2268 7.66306,-19.16582 6.41706,-27.8191 z m -51.40187,22.01942 c 11.98059,0.31521 23.18343,5.15455 31.34535,12.38837 -0.65651,38.14979 -50.57924,57.47508 -85.51272,29.53247 2.63951,-5.90608 5.52935,-11.10794 8.6054,-15.63204 21.51633,35.44236 66.54896,9.66801 45.56197,-26.2888 z m -55.52924,-6.06925 c 17.0828,-5.99826 34.27286,-15.1285 48.70859,-30.14107 27.34586,-28.43858 43.3624,-16.2424 56.39946,-8.42557 3.15568,1.89211 5.96485,-2.05574 3.15564,-4.22503 -18.51918,-14.30072 -34.79431,-23.64383 -71.33351,6.82632 -12.39744,10.33828 -26.26696,18.45497 -42.52839,22.0218 -9.61335,2.10862 -6.57289,18.21714 5.59821,13.94355 z M 285.48467,609.61209 c 36.80854,-4.22408 89.52683,50.39383 102.61057,54.79084 11.5281,3.8742 11.7933,-9.74188 4.94751,-11.99559 -21.45161,-7.06213 -72.02209,-60.50757 -111.24324,-54.50497 -7.57279,1.15898 -6.4307,12.87059 3.68516,11.70972 z"
       inkscape:connector-curvature="0"
       sodipodi:nodetypes="cssccccssscccsccccsssscsscscsccsccssssccccssscsccssscscscsscssssssccccsccccccccscccsccssccccccccccccccccccccccssssscsssccssssscccccccccccccssssscsccccccccccccccccccccssssssssssss" />
  </g>
</svg>
